#Comment line ignore any data following # character 
#Hierarchical Translation and Rotation (.htr) file 
[Header]	
#Header keywords are followed by a single value 
FileType HTR		#Single word string
DataType HTRS		#Translation followed by rotation and scale data
FileVersion 1		#integer
NumSegments 25		#integer
NumFrames 4		#integer
DataFrameRate 30		#integer, data frame rate in this file
EulerRotationOrder ZYX
CalibrationUnits mm
RotationUnits Degrees
GlobalAxisofGravity Y
BoneLengthAxis Y
ScaleFactor 1.00
[SegmentNames&Hierarchy]
#CHILD	PARENT
BN_Tick_Root GLOBAL
BN_Torso BN_Tick_Root
BN_L_Leg_Front01 BN_Torso
BN_L_Leg_Rear01 BN_Torso
BN_MetalTop BN_Torso
BN_Neck BN_Torso
BN_R_Leg_Front01 BN_Torso
BN_R_Leg_Rear01 BN_Torso
BN_Sack BN_Torso
BN_L_Leg_Front02 BN_L_Leg_Front01
BN_L_Leg_Front03 BN_L_Leg_Front02
BN_L_Leg_Rear02 BN_L_Leg_Rear01
BN_L_Leg_Rear03 BN_L_Leg_Rear02
BN_Head BN_Neck
BN_Needle BN_Head
BN_R_Leg_Front02 BN_R_Leg_Front01
BN_R_Leg_Front03 BN_R_Leg_Front02
BN_R_Leg_Rear02 BN_R_Leg_Rear01
BN_R_Leg_Rear03 BN_R_Leg_Rear02
BN_SackDef01 BN_Sack
BN_SackDef02 BN_Sack
BN_SackDef03 BN_Sack
BN_SackDef04 BN_Sack
BN_SackDef05 BN_Sack
BN_SackDef06 BN_Sack
[BasePosition]
#SegmentName Tx, Ty, Tz, Rx, Ry, Rz, BoneLength
BN_Tick_Root 0.000000 0.000000 0.000000 -90.000000 0.000000 0.000000 10.000000 
BN_Torso 0.000000 0.000000 0.000000 0.000000 0.000000 0.000000 10.000000 
BN_L_Leg_Front01 0.000000 0.000000 0.000000 0.000000 0.000000 0.000000 10.000000 
BN_L_Leg_Rear01 0.000000 0.000000 0.000000 0.000000 0.000000 0.000000 10.000000 
BN_MetalTop 0.000000 0.000000 0.000000 0.000000 0.000000 0.000000 10.000000 
BN_Neck 0.000000 0.000000 0.000000 0.000000 0.000000 0.000000 10.000000 
BN_R_Leg_Front01 0.000000 0.000000 0.000000 0.000000 0.000000 0.000000 10.000000 
BN_R_Leg_Rear01 0.000000 0.000000 0.000000 0.000000 0.000000 0.000000 10.000000 
BN_Sack 0.000000 0.000000 0.000000 0.000000 0.000000 0.000000 10.000000 
BN_L_Leg_Front02 0.000000 0.000000 0.000000 0.000000 0.000000 0.000000 10.000000 
BN_L_Leg_Front03 0.000000 0.000000 0.000000 0.000000 0.000000 0.000000 10.000000 
BN_L_Leg_Rear02 0.000000 0.000000 0.000000 0.000000 0.000000 0.000000 10.000000 
BN_L_Leg_Rear03 0.000000 0.000000 0.000000 0.000000 0.000000 0.000000 10.000000 
BN_Head 0.000000 0.000000 0.000000 0.000000 0.000000 0.000000 10.000000 
BN_Needle 0.000000 0.000000 0.000000 0.000000 0.000000 0.000000 10.000000 
BN_R_Leg_Front02 0.000000 0.000000 0.000000 0.000000 0.000000 0.000000 10.000000 
BN_R_Leg_Front03 0.000000 0.000000 0.000000 0.000000 0.000000 0.000000 10.000000 
BN_R_Leg_Rear02 0.000000 0.000000 0.000000 0.000000 0.000000 0.000000 10.000000 
BN_R_Leg_Rear03 0.000000 0.000000 0.000000 0.000000 0.000000 0.000000 10.000000 
BN_SackDef01 0.000000 0.000000 0.000000 0.000000 0.000000 0.000000 10.000000 
BN_SackDef02 0.000000 0.000000 0.000000 0.000000 0.000000 0.000000 10.000000 
BN_SackDef03 0.000000 0.000000 0.000000 0.000000 0.000000 0.000000 10.000000 
BN_SackDef04 0.000000 0.000000 0.000000 0.000000 0.000000 0.000000 10.000000 
BN_SackDef05 0.000000 0.000000 0.000000 0.000000 0.000000 0.000000 10.000000 
BN_SackDef06 0.000000 0.000000 0.000000 0.000000 0.000000 0.000000 10.000000 
#Beginning of Data. Separated by tabs
#Fr	Tx	Ty	Tz	Rx	Ry	Rz	SF
[BN_Tick_Root]
48 358.032257 -215.882660 -0.000106 0.000000 -0.000000 18.690838 418.081818
49 358.032349 -215.882645 -0.000109 0.000000 -0.000000 18.418211 418.081909
50 358.032379 -215.882629 -0.000113 0.000000 -0.000000 17.640514 418.081940
51 358.032379 -215.882614 -0.000116 0.000000 -0.000000 16.416586 418.081909
[BN_Torso]
48 0.000081 -0.000020 212.740707 12.819937 -0.951488 -3.614534 212.740707
49 0.000009 0.000004 212.740707 12.821771 -0.951698 -3.345713 212.740707
50 0.000017 0.000009 212.740707 12.822922 -0.949735 -2.563896 212.740707
51 0.000026 0.000013 212.740707 12.820358 -0.947836 -1.339165 212.740707
[BN_L_Leg_Front01]
48 -68.477791 10.734189 -26.804373 -40.185055 41.042171 149.510910 74.316254
49 -68.477791 10.734189 -26.804373 -37.769009 47.042534 148.997055 74.316254
50 -68.477791 10.734189 -26.804373 -30.939928 58.558475 148.843460 74.316254
51 -68.477791 10.734189 -26.804373 -30.939716 58.558777 148.843491 74.316254
[BN_L_Leg_Rear01]
48 -72.133743 -73.994843 -18.268616 77.816322 33.958561 -141.839676 104.939293
49 -72.133743 -73.994843 -18.268616 77.816299 33.958679 -141.839447 104.939293
50 -72.133743 -73.994843 -18.268616 77.816299 33.958679 -141.839447 104.939293
51 -72.133743 -73.994843 -18.268616 77.816299 33.958679 -141.839447 104.939293
[BN_MetalTop]
48 0.000008 13.737477 26.403606 90.000008 -12.928561 -89.999992 29.763546
49 0.000008 13.737477 26.403606 90.000008 -12.928561 -89.999992 29.763546
50 0.000008 13.737477 26.403606 90.000008 -12.928561 -89.999992 29.763546
51 0.000008 13.737477 26.403606 90.000008 -12.928561 -89.999992 29.763546
[BN_Neck]
48 0.000014 95.233284 10.002091 -114.828415 -64.755943 118.134239 95.757088
49 0.000014 95.233284 10.002091 -114.828415 -64.755959 118.134239 95.757088
50 0.000014 95.233284 10.002091 -114.828415 -64.755959 118.134239 95.757088
51 0.000014 95.233284 10.002091 -114.828415 -64.755959 118.134239 95.757088
[BN_R_Leg_Front01]
48 68.477768 10.734107 -26.804314 33.825169 58.860104 32.601711 74.316193
49 68.477768 10.734107 -26.804314 33.825153 58.860085 32.601700 74.316193
50 68.477768 10.734107 -26.804314 33.825142 58.860069 32.601688 74.316193
51 68.477768 10.734107 -26.804314 33.825169 58.860104 32.601711 74.316193
[BN_R_Leg_Rear01]
48 72.133751 -73.994873 -18.268644 -74.128197 29.189571 -62.634090 104.939331
49 72.133751 -73.994873 -18.268644 -77.196274 33.031086 -49.571751 104.939331
50 72.133751 -73.994873 -18.268644 -77.196320 33.031162 -49.571495 104.939331
51 72.133751 -73.994873 -18.268644 -77.196304 33.031155 -49.571480 104.939331
[BN_Sack]
48 -0.000000 -78.024918 33.657791 89.996338 -1.615779 -89.999245 84.974907
49 -0.000000 -78.024918 33.657791 89.996292 -1.270905 -89.999405 84.974907
50 -0.000000 -78.024918 33.657791 89.996254 -0.926065 -89.999550 84.974907
51 -0.000000 -78.024918 33.657791 89.997444 -0.684908 -89.999107 84.974907
[BN_L_Leg_Front02]
48 142.805023 -0.000015 -0.000104 -4.768692 -6.424439 -80.176216 142.805023
49 142.805023 -0.000015 -0.000104 -1.994836 -3.948962 -91.217278 142.805023
50 142.805023 -0.000015 -0.000104 0.150530 0.418859 -104.669785 142.805023
51 142.805023 -0.000015 -0.000104 0.150573 0.418982 -104.670128 142.805023
[BN_L_Leg_Front03]
48 124.143021 -0.000045 0.000007 0.351162 -0.446535 84.932106 124.143021
49 124.143021 -0.000045 0.000007 0.351250 -0.443755 98.602303 124.143021
50 124.143021 -0.000045 0.000007 0.352870 -0.409377 113.554375 124.143021
51 124.143021 -0.000045 0.000007 0.352870 -0.409376 113.554779 124.143021
[BN_L_Leg_Rear02]
48 139.939041 0.000075 -0.000022 0.142372 -0.211089 78.899796 139.939041
49 139.939041 0.000075 -0.000022 0.142332 -0.211041 78.900017 139.939041
50 139.939041 0.000075 -0.000022 0.142332 -0.211041 78.900017 139.939041
51 139.939041 0.000075 -0.000022 0.142332 -0.211041 78.900017 139.939041
[BN_L_Leg_Rear03]
48 142.839615 0.000179 -0.000060 0.000072 -0.002346 -93.506630 142.839615
49 142.839615 0.000179 -0.000060 0.000072 -0.002346 -93.506958 142.839615
50 142.839615 0.000179 -0.000060 0.000072 -0.002346 -93.506958 142.839615
51 142.839615 0.000179 -0.000060 0.000072 -0.002346 -93.506958 142.839615
[BN_Head]
48 57.062447 -0.000030 0.000000 0.947333 -11.623564 -1.670741 57.062447
49 57.062447 -0.000030 0.000000 0.947333 -11.623564 -1.670741 57.062447
50 57.062447 -0.000030 0.000000 0.947333 -11.623564 -1.670741 57.062447
51 57.062447 -0.000030 0.000000 0.947333 -11.623564 -1.670741 57.062447
[BN_Needle]
48 33.915211 69.677582 -0.000061 0.000003 0.000030 87.896805 77.493271
49 33.915211 69.677582 -0.000061 0.000003 0.000030 87.896805 77.493271
50 33.915207 69.677582 -0.000061 0.000003 0.000030 87.896805 77.493271
51 33.915207 69.677582 -0.000060 0.000003 0.000030 87.896805 77.493271
[BN_R_Leg_Front02]
48 142.804947 -0.000060 0.000060 -0.169720 0.366419 98.688721 142.804947
49 142.804947 -0.000060 0.000060 -0.169773 0.365722 98.688736 142.804947
50 142.804947 -0.000060 0.000060 -0.169826 0.365025 98.688736 142.804947
51 142.804947 -0.000060 0.000060 -0.169879 0.364327 98.688744 142.804947
[BN_R_Leg_Front03]
48 124.143005 -0.000060 -0.000156 -0.352347 -0.430470 -107.172188 124.143005
49 124.143005 -0.000060 -0.000156 -0.352347 -0.430470 -107.172188 124.143005
50 124.143005 -0.000060 -0.000156 -0.352347 -0.430470 -107.172188 124.143005
51 124.143005 -0.000060 -0.000156 -0.352347 -0.430470 -107.172188 124.143005
[BN_R_Leg_Rear02]
48 139.939011 -0.000149 0.000015 -1.043086 -3.356749 -97.956993 139.939011
49 139.939011 -0.000149 0.000015 -0.140289 -0.187816 -75.479050 139.939011
50 139.939011 -0.000149 0.000015 -0.138683 -0.185758 -75.478615 139.939011
51 139.939011 -0.000149 0.000015 -0.137106 -0.183756 -75.478615 139.939011
[BN_R_Leg_Rear03]
48 142.839417 0.000075 0.000119 0.002282 -0.000549 117.028938 142.839417
49 142.839417 0.000075 0.000119 0.002347 0.000025 88.794548 142.839417
50 142.839417 0.000075 0.000119 0.002347 0.000025 88.794014 142.839417
51 142.839417 0.000075 0.000119 0.002347 0.000025 88.794014 142.839417
[BN_SackDef01]
48 249.782272 -3.760844 42.949425 -128.408218 -44.374973 -11.740845 253.475800
49 249.782272 -3.760844 42.949425 -128.408218 -44.374973 -11.740845 253.475800
50 249.782272 -3.760844 42.949425 -128.408218 -44.374973 -11.740845 253.475800
51 249.782272 -3.760844 42.949425 -128.408218 -44.374973 -11.740845 253.475800
[BN_SackDef02]
48 138.789795 -62.131748 45.674385 32.077126 -27.375721 -88.781525 158.773758
49 138.789795 -62.131748 45.674385 32.077126 -27.375721 -88.781525 158.773758
50 138.789795 -62.131748 45.674385 32.077126 -27.375721 -88.781525 158.773758
51 138.789795 -62.131748 45.674385 32.077126 -27.375721 -88.781525 158.773758
[BN_SackDef03]
48 249.782272 -3.760785 -42.949661 18.144459 44.375008 -11.740894 253.475845
49 249.782272 -3.760785 -42.949661 18.144459 44.375008 -11.740894 253.475845
50 249.782272 -3.760785 -42.949661 18.144459 44.375008 -11.740894 253.475845
51 249.782272 -3.760785 -42.949661 18.144459 44.375008 -11.740894 253.475845
[BN_SackDef04]
48 138.789780 -62.131645 -45.674473 146.059982 27.375723 -88.781555 158.773743
49 138.789780 -62.131645 -45.674473 146.059982 27.375723 -88.781555 158.773743
50 138.789780 -62.131645 -45.674473 146.059982 27.375723 -88.781555 158.773743
51 138.789780 -62.131645 -45.674473 146.059982 27.375723 -88.781555 158.773743
[BN_SackDef05]
48 118.790161 46.167137 -63.831196 0.155741 51.314110 90.605110 142.537460
49 118.790161 46.167137 -63.831196 0.155741 51.314110 90.605110 142.537460
50 118.790161 46.167137 -63.831196 0.155741 51.314110 90.605110 142.537460
51 118.790161 46.167137 -63.831196 0.155741 51.314110 90.605110 142.537460
[BN_SackDef06]
48 118.790207 46.167194 63.831219 152.058487 -51.314072 90.605019 142.537537
49 118.790207 46.167194 63.831219 152.058487 -51.314072 90.605019 142.537537
50 118.790207 46.167194 63.831219 152.058487 -51.314072 90.605019 142.537537
51 118.790207 46.167194 63.831219 152.058487 -51.314072 90.605019 142.537537
